<svg xmlns="http://www.w3.org/2000/svg" width="1024" height="1536" viewBox="0 0 1024 1536" role="img" aria-labelledby="title desc">
<title id="title">GPT Discount 手机端首页设计参考</title><desc id="desc">深靛蓝 Hero、搜索、需求路线与最近核验卡片的高保真移动端设计参考。</desc>
<rect width="1024" height="1536" fill="#F6F7FB"/>
<g font-family="Inter,PingFang SC,Microsoft YaHei,sans-serif">
<rect x="55" y="22" width="914" height="92" rx="28" fill="#fff" stroke="#E8EAF1"/><path d="M85 44h68a10 10 0 0 1 10 10v10a10 10 0 0 0 0 20v10a10 10 0 0 1-10 10H85a10 10 0 0 1-10-10V84a10 10 0 0 0 0-20V54a10 10 0 0 1 10-10Z" fill="#6558F5"/><text x="119" y="84" text-anchor="middle" font-size="38" font-weight="800" fill="#fff">折</text><text x="181" y="83" font-size="36" font-weight="800" fill="#111827">GPT Discount</text><rect x="865" y="36" width="82" height="64" rx="18" fill="#F2F4F7"/><path d="M891 55h30M891 68h30M891 81h30" stroke="#667085" stroke-width="4" stroke-linecap="round"/>
<defs><linearGradient id="hero" x1="0" y1="0" x2="1" y2="1"><stop stop-color="#171A35"/><stop offset="1" stop-color="#0F163E"/></linearGradient><linearGradient id="accent" x1="0" y1="0" x2="1" y2="0"><stop stop-color="#8B7CFF"/><stop offset="1" stop-color="#6D8CFF"/></linearGradient></defs>
<rect x="55" y="132" width="914" height="634" rx="38" fill="url(#hero)"/><rect x="92" y="159" width="268" height="52" rx="26" fill="none" stroke="#4C527C"/><text x="226" y="192" text-anchor="middle" font-size="22" fill="#E4E7F8">公开入口 · 可复查路径</text><text x="92" y="292" font-size="58" font-weight="850" fill="#fff">先确认能不能领，</text><text x="92" y="370" font-size="62" font-weight="850" fill="url(#accent)">再去拿优惠</text><text x="92" y="424" font-size="24" fill="#CFD3E6">按身份和目标找到适合你的优惠，先看资格、</text><text x="92" y="462" font-size="24" fill="#CFD3E6">地区和续费规则，再按步骤领取。</text><path d="M700 220h124a16 16 0 0 1 16 16v18a16 16 0 0 0 0 32v18a16 16 0 0 1-16 16H700a16 16 0 0 1-16-16v-18a16 16 0 0 0 0-32v-18a16 16 0 0 1 16-16Z" fill="none" stroke="#59619A" stroke-width="6" transform="rotate(-18 762 270)"/><circle cx="762" cy="270" r="35" fill="none" stroke="#6558F5" stroke-width="5"/><path d="m745 271 12 12 23-27" fill="none" stroke="#7A6CF6" stroke-width="6" stroke-linecap="round" stroke-linejoin="round"/>
<rect x="92" y="493" width="840" height="94" rx="20" fill="#fff"/><circle cx="137" cy="540" r="17" fill="none" stroke="#667085" stroke-width="4"/><path d="m150 553 14 14" stroke="#667085" stroke-width="4" stroke-linecap="round"/><text x="194" y="549" font-size="25" fill="#98A2B3">搜索 ChatGPT、Claude、学生包……</text><rect x="817" y="500" width="108" height="80" rx="18" fill="#6558F5"/><circle cx="865" cy="537" r="17" fill="none" stroke="#fff" stroke-width="4"/><path d="m878 550 15 15" stroke="#fff" stroke-width="4" stroke-linecap="round"/>
<g font-size="21" fill="#F4F3FF"><rect x="92" y="608" width="142" height="50" rx="25" fill="#272D58"/><text x="163" y="641" text-anchor="middle">教育邮箱</text><rect x="248" y="608" width="190" height="50" rx="25" fill="#272D58"/><text x="343" y="641" text-anchor="middle">GitHub 学生包</text><rect x="452" y="608" width="138" height="50" rx="25" fill="#272D58"/><text x="521" y="641" text-anchor="middle">ChatGPT</text><rect x="604" y="608" width="112" height="50" rx="25" fill="#272D58"/><text x="660" y="641" text-anchor="middle">Claude</text><rect x="730" y="608" width="186" height="50" rx="25" fill="#272D58"/><text x="823" y="641" text-anchor="middle">云服务赠金</text></g><path d="M360 688v48M667 688v48" stroke="#343A67"/><text x="208" y="724" text-anchor="middle" font-size="28" fill="#fff"><tspan fill="#8476FF" font-size="40" font-weight="800">4</tspan> 类优惠</text><text x="512" y="724" text-anchor="middle" font-size="28" fill="#fff"><tspan fill="#8476FF" font-size="40" font-weight="800">13</tspan> 篇教程</text><text x="820" y="724" text-anchor="middle" font-size="30" font-weight="750" fill="#8476FF">公开可核验</text>
<text x="58" y="836" font-size="40" font-weight="850" fill="#111827">从你的需求开始</text><text x="58" y="877" font-size="23" fill="#667085">选择最接近你的身份或目标</text>
<g><rect x="55" y="905" width="444" height="126" rx="22" fill="#fff" stroke="#E6E8F0"/><rect x="79" y="929" width="72" height="72" rx="18" fill="#F0EEFF"/><path d="m92 955 23-12 23 12-23 12-23-12Zm8 8v15c10 7 20 7 30 0v-15" fill="none" stroke="#6558F5" stroke-width="4"/><text x="178" y="961" font-size="26" font-weight="800" fill="#111827">学生与教育优惠</text><text x="178" y="995" font-size="19" fill="#667085">GitHub、JetBrains、Notion</text><path d="m465 964 10 10-10 10" fill="none" stroke="#6558F5" stroke-width="4" stroke-linecap="round" stroke-linejoin="round"/>
<rect x="522" y="905" width="447" height="126" rx="22" fill="#fff" stroke="#E6E8F0"/><rect x="546" y="929" width="72" height="72" rx="18" fill="#EEF2FF"/><path d="m582 942 6 18 18 6-18 6-6 18-6-18-18-6 18-6 6-18Z" fill="none" stroke="#6D7CF6" stroke-width="4"/><text x="645" y="961" font-size="26" font-weight="800" fill="#111827">AI 工具订阅</text><text x="645" y="995" font-size="19" fill="#667085">ChatGPT、Claude、Cursor</text><path d="m935 964 10 10-10 10" fill="none" stroke="#6558F5" stroke-width="4" stroke-linecap="round" stroke-linejoin="round"/>
<rect x="55" y="1047" width="444" height="126" rx="22" fill="#fff" stroke="#E6E8F0"/><rect x="79" y="1071" width="72" height="72" rx="18" fill="#FFF4E8"/><rect x="96" y="1087" width="38" height="32" rx="5" fill="none" stroke="#F59E0B" stroke-width="4"/><path d="M104 1087v-8h22v8M96 1101h38" stroke="#F59E0B" stroke-width="4"/><text x="178" y="1103" font-size="26" font-weight="800" fill="#111827">常用软件低价</text><text x="178" y="1137" font-size="19" fill="#667085">设计、办公、效率工具</text><path d="m465 1106 10 10-10 10" fill="none" stroke="#6558F5" stroke-width="4" stroke-linecap="round" stroke-linejoin="round"/>
<rect x="522" y="1047" width="447" height="126" rx="22" fill="#fff" stroke="#E6E8F0"/><rect x="546" y="1071" width="72" height="72" rx="18" fill="#EAF9F3"/><path d="M564 1117c-10-1-14-16-4-22 2-14 22-18 30-7 13-1 18 17 7 24" fill="none" stroke="#16A36A" stroke-width="4"/><circle cx="595" cy="1115" r="12" fill="none" stroke="#16A36A" stroke-width="4"/><text x="595" y="1121" text-anchor="middle" font-size="16" font-weight="800" fill="#16A36A">$</text><text x="645" y="1103" font-size="26" font-weight="800" fill="#111827">云服务赠金</text><text x="645" y="1137" font-size="19" fill="#667085">Google Cloud、VPS</text><path d="m935 1106 10 10-10 10" fill="none" stroke="#6558F5" stroke-width="4" stroke-linecap="round" stroke-linejoin="round"/></g>
<text x="58" y="1242" font-size="38" font-weight="850" fill="#111827">最近核验</text><text x="870" y="1240" text-anchor="end" font-size="22" fill="#6558F5">查看全部 →</text><rect x="55" y="1263" width="914" height="202" rx="24" fill="#fff" stroke="#E6E8F0"/><circle cx="121" cy="1354" r="42" fill="#111"/><text x="121" y="1368" text-anchor="middle" font-size="42" fill="#fff">●</text><rect x="194" y="1287" width="93" height="34" rx="17" fill="#EAF9F3"/><text x="240" y="1310" text-anchor="middle" font-size="17" font-weight="750" fill="#16A36A">可领取</text><text x="318" y="1310" font-size="18" fill="#667085">预计 5–10 分钟</text><text x="194" y="1358" font-size="27" font-weight="800" fill="#111827">GitHub Student Pack 与 Copilot 学生权益</text><text x="194" y="1406" font-size="32" font-weight="850" fill="#16A36A">免费</text><text x="330" y="1404" font-size="21" fill="#667085">适合：在校学生</text><text x="194" y="1443" font-size="18" fill="#667085">2026-07-08 验证</text><circle cx="895" cy="1364" r="37" fill="#fff" stroke="#D7DAE5" stroke-width="3"/><path d="M875 1364h34m-11-12 12 12-12 12" fill="none" stroke="#6558F5" stroke-width="4" stroke-linecap="round" stroke-linejoin="round"/>
</g></svg>