<svg xmlns="http://www.w3.org/2000/svg" width="1070" height="1470" viewBox="0 0 1070 1470" role="img" aria-labelledby="title desc">
  <title id="title">GPT Discount 学生与教育优惠专题页设计参考</title>
  <desc id="desc">根据已确认高保真稿整理的可缩放 SVG 参考图。</desc>
  <defs>
    <linearGradient id="hero" x1="0" y1="0" x2="1" y2="1"><stop stop-color="#fff"/><stop offset="1" stop-color="#f1efff"/></linearGradient>
    <linearGradient id="purple" x1="0" y1="0" x2="1" y2="1"><stop stop-color="#665df7"/><stop offset="1" stop-color="#4236d8"/></linearGradient>
    <filter id="shadow"><feDropShadow dx="0" dy="8" stdDeviation="12" flood-color="#0f172a" flood-opacity=".08"/></filter>
    <style>
      text{font-family:Inter,"PingFang SC","Microsoft YaHei",sans-serif;fill:#111526}.muted{fill:#697184}.brand{fill:#5147f5}.small{font-size:13px}.body{font-size:15px}.title{font-size:42px;font-weight:800}.h2{font-size:27px;font-weight:800}.card-title{font-size:15px;font-weight:750}.benefit{font-size:13px;font-weight:700}.chip{font-size:12px;font-weight:700}.line{stroke:#e6e8ef}.card{fill:#fff;stroke:#e6e8ef}.soft{fill:#f4f3ff}.icon{fill:none;stroke:#5147f5;stroke-width:3;stroke-linecap:round;stroke-linejoin:round}
    </style>
  </defs>
  <rect width="1070" height="1470" fill="#f8f9fc"/>
  <rect x="0" y="0" width="1070" height="70" fill="#fff"/><path d="M0 70h1070" class="line"/>
  <path d="m48 20 18-10 18 10v20L66 50 48 40Z" fill="url(#purple)"/><path d="m66 21 8 5v9l-8 5-8-5v-9Z" fill="#fff" opacity=".95"/>
  <text x="95" y="42" font-size="20" font-weight="800">GPT Discount</text>
  <text x="355" y="42" class="body">首页</text><text x="440" y="42" class="body brand" font-weight="750">专题⌄</text><text x="540" y="42" class="body">最近更新</text><text x="650" y="42" class="body">认证指南</text>
  <rect x="970" y="14" width="44" height="44" rx="14" fill="#fff" stroke="#e4e6ed"/><circle cx="990" cy="33" r="8" fill="none" stroke="#111526" stroke-width="2"/><path d="m996 39 7 7" stroke="#111526" stroke-width="2"/>

  <rect x="46" y="92" width="978" height="362" rx="25" fill="url(#hero)" stroke="#e6e8ef" filter="url(#shadow)"/>
  <text x="78" y="142" class="body brand" font-weight="750">GPT Discount 专题</text>
  <text x="78" y="205" class="title">学生与教育优惠</text>
  <text x="78" y="247" font-size="18" font-weight="700">聚合公开可核验的学生折扣、教育授权与免费权益。</text>
  <text x="78" y="292" class="body muted">本专题收录面向学生与教育工作者的公开优惠与授权计划，</text><text x="78" y="320" class="body muted">整理领取入口、资格要求与关键提醒，帮助你快速判断。</text>
  <circle cx="88" cy="360" r="11" fill="#eeedff" stroke="#5147f5"/><path d="m83 360 4 4 7-9" class="icon" stroke-width="2"/><text x="110" y="365" class="small muted">持续核验公开入口与领取状态</text>
  <path d="M88 394v18m-6-6 6 6 6-6" class="icon" stroke-width="2"/><text x="110" y="410" class="small brand" font-weight="750">向下查看全部优惠</text>

  <circle cx="804" cy="260" r="127" fill="#eeedff"/>
  <path d="m690 170 112-52 112 52-112 52Z" fill="url(#purple)"/><path d="M728 191v65c46 25 102 25 148 0v-65" fill="#5147f5" opacity=".85"/>
  <rect x="615" y="236" width="171" height="105" rx="19" fill="#fff" stroke="#dcd9ff"/><rect x="637" y="258" width="50" height="54" rx="12" fill="#eeedff"/><circle cx="662" cy="276" r="10" fill="#746bf5"/><path d="M645 304c8-15 26-15 34 0" fill="#746bf5"/><path d="M706 266h54M706 286h42M706 304h50" stroke="#8e86f8" stroke-width="7" stroke-linecap="round" opacity=".45"/>
  <circle cx="842" cy="320" r="57" fill="#fff" stroke="#665df7" stroke-width="7"/><circle cx="842" cy="320" r="36" fill="#eeedff"/><path d="m824 320 12 13 26-29" class="icon" stroke-width="7"/>
  <path d="M741 392c32-14 65-14 97 4 32-18 65-18 97-4v20c-34-10-66-8-97 8-31-16-63-18-97-8Z" fill="#fff" stroke="#665df7" stroke-width="4"/>

  <text x="47" y="505" class="h2">全部优惠</text><text x="47" y="531" class="small muted">持续整理和核验该专题下的公开优惠与领取教程。</text>
  <rect x="635" y="480" width="250" height="49" rx="15" fill="#fff" stroke="#e2e5ec"/><text x="660" y="510" class="small" fill="#9ca3af">搜索优惠名称或关键词</text><circle cx="856" cy="503" r="8" fill="none" stroke="#8b93a3" stroke-width="2"/>
  <rect x="900" y="480" width="124" height="49" rx="15" fill="#fff" stroke="#e2e5ec"/><text x="925" y="510" class="small">最新核验⌄</text>
  <g transform="translate(47 548)"><rect width="74" height="34" rx="17" fill="#5147f5"/><text x="23" y="22" class="chip" fill="#fff">全部</text><g transform="translate(86)"><rect width="94" height="34" rx="17" class="card"/><text x="20" y="22" class="chip muted">免费权益</text></g><g transform="translate(192)"><rect width="94" height="34" rx="17" class="card"/><text x="20" y="22" class="chip muted">学生折扣</text></g><g transform="translate(298)"><rect width="94" height="34" rx="17" class="card"/><text x="20" y="22" class="chip muted">学校授权</text></g><g transform="translate(404)"><rect width="94" height="34" rx="17" class="card"/><text x="20" y="22" class="chip muted">限时活动</text></g><g transform="translate(510)"><rect width="82" height="34" rx="17" class="card"/><text x="19" y="22" class="chip muted">已结束</text></g></g>

  <g transform="translate(47 605)">
    <g id="deal"><rect width="306" height="218" rx="20" class="card" filter="url(#shadow)"/><rect x="17" y="18" width="43" height="43" rx="13" fill="#111"/><text x="27" y="46" font-size="13" font-weight="800" fill="#fff">OA</text><rect x="217" y="20" width="71" height="28" rx="14" fill="#fff0e2"/><text x="233" y="39" class="chip" fill="#c35d0a">待验证</text><text x="76" y="39" class="card-title">OpenAI 学生计划</text><text x="17" y="85" class="small muted">教育账户可享受专属权益与使用额度。</text><path d="m21 112 3 9 9 3-9 3-3 9-3-9-9-3 9-3Z" fill="#5147f5"/><text x="39" y="128" class="benefit brand">学生身份有效期内可享受教育权益</text><circle cx="23" cy="155" r="7" fill="none" stroke="#d97706"/><text x="38" y="160" class="small muted">需要真实学生身份</text><text x="17" y="198" class="small" fill="#d97706" font-weight="750">查看核验说明</text><path d="M267 193h19m-6-6 6 6-6 6" stroke="#5147f5" stroke-width="2" fill="none"/></g>
    <g transform="translate(326)"><use href="#deal"/><rect x="17" y="18" width="43" height="43" rx="13" fill="#111"/><text x="27" y="46" font-size="13" font-weight="800" fill="#fff">GH</text><rect x="225" y="20" width="63" height="28" rx="14" fill="#e8f9f0"/><text x="239" y="39" class="chip" fill="#07804f">可领取</text><text x="76" y="39" class="card-title">GitHub Education</text><text x="17" y="85" class="small muted">面向学生的开发工具与学习资源。</text><text x="39" y="128" class="benefit" fill="#07804f">开发者工具与学生资源包</text><text x="38" y="160" class="small muted">部分权益依赖第三方服务</text><text x="17" y="198" class="small brand" font-weight="750">查看领取教程</text></g>
    <g transform="translate(652)"><use href="#deal"/><rect x="17" y="18" width="43" height="43" rx="13" fill="#fff" stroke="#111"/><text x="30" y="46" font-size="16" font-weight="900">N</text><rect x="217" y="20" width="71" height="28" rx="14" fill="#edf0ff"/><text x="231" y="39" class="chip" fill="#3347cf">免费使用</text><text x="76" y="39" class="card-title">Notion 教育版</text><text x="17" y="85" class="small muted">教育邮箱认证后可使用高级功能。</text><text x="39" y="128" class="benefit brand">教育邮箱可用高级功能</text><text x="38" y="160" class="small muted">毕业后资格可能失效</text><text x="17" y="198" class="small brand" font-weight="750">查看领取教程</text></g>
  </g>
  <g transform="translate(47 843)"><use href="#deal"/><g transform="translate(326)"><use href="#deal"/></g><g transform="translate(652)"><use href="#deal"/></g></g>
  <g transform="translate(47 1081)"><use href="#deal"/><g transform="translate(326)"><use href="#deal"/></g><g transform="translate(652)" opacity=".55"><use href="#deal"/></g></g>
  <rect x="400" y="1316" width="270" height="45" rx="23" fill="#fff" stroke="#756df6"/><text x="483" y="1344" class="small brand" font-weight="750">加载更多优惠⌄</text>
  <text x="47" y="1410" class="h2">浏览其他专题</text>
</svg>
